<svg width="100" height="100" viewBox="0 0 100 100" fill="none" xmlns="http://www.w3.org/2000/svg">
<g clip-path="url(#clip0_258_210)">
<rect width="100" height="100" rx="23.3696" transform="matrix(-1 0 0 1 100 0)" fill="#6000FF"/>
<g filter="url(#filter0_d_258_210)">
<circle cx="28.2609" cy="28.2609" r="28.2609" transform="matrix(-1 0 0 1 78.2609 21.7392)" fill="white"/>
</g>
<path d="M44.5 44.2177C48.0308 57.6463 50.9023 72.7093 56.7655 85.2957C58.0947 88.1491 60.8674 89.2812 63.3832 88.9094C65.7932 88.5532 68.1162 86.7933 68.7637 83.9602L68.764 83.9589L71.7499 70.9079L71.7502 70.9066C71.7601 70.8649 71.7767 70.841 71.7886 70.8286L84.7313 69.6089C90.5766 69.0601 92.8104 61.3516 87.7738 57.9036L44.5 44.2177ZM44.5 44.2177C43.2349 39.4019 45.903 35.3321 51.2573 37.6878L51.2587 37.6884M44.5 44.2177L51.2587 37.6884ZM51.2587 37.6884L52.0639 38.0432ZM51.2587 37.6884L52.0639 38.0432ZM52.0639 38.0432C64.556 43.5437 76.5111 50.1926 87.7738 57.9036L52.0639 38.0432Z" fill="black"/>
<path d="M44.5 44.2177C48.0308 57.6463 50.9023 72.7093 56.7655 85.2957C58.0947 88.1491 60.8674 89.2812 63.3832 88.9094C65.7932 88.5532 68.1162 86.7933 68.7637 83.9602L68.764 83.9589L71.7499 70.9079L71.7502 70.9066C71.7601 70.8649 71.7767 70.841 71.7886 70.8286L84.7313 69.6089C90.5766 69.0601 92.8104 61.3516 87.7738 57.9036M44.5 44.2177L87.7738 57.9036M44.5 44.2177C43.2349 39.4019 45.903 35.3321 51.2573 37.6878L51.2587 37.6884M44.5 44.2177L51.2587 37.6884M87.7738 57.9036C76.5111 50.1926 64.556 43.5437 52.0639 38.0432M87.7738 57.9036L52.0639 38.0432M51.2587 37.6884L52.0639 38.0432" stroke="white" stroke-width="8"/>
<rect x="85" y="59" width="3" height="8" fill="white"/>
<path d="M45.3175 44.8422C44.6092 42.1458 47.2807 39.498 50.0492 40.7161L50.8549 41.0711C63.1773 46.4969 74.9693 53.0551 86.079 60.6613C88.7281 62.4747 87.5877 66.6098 84.4508 66.9044L71.4679 68.1278C70.2272 68.2435 69.1319 69.1875 68.8261 70.5184L65.8393 83.5734C65.1548 86.5711 60.9227 87.3978 59.4849 84.3112C53.697 71.8866 49.0325 58.969 45.5472 45.7129L45.3175 44.8422Z" fill="black"/>
</g>
<defs>
<filter id="filter0_d_258_210" x="-26.7609" y="-26.7608" width="153.522" height="153.522" filterUnits="userSpaceOnUse" color-interpolation-filters="sRGB">
<feFlood flood-opacity="0" result="BackgroundImageFix"/>
<feColorMatrix in="SourceAlpha" type="matrix" values="0 0 0 0 0 0 0 0 0 0 0 0 0 0 0 0 0 0 127 0" result="hardAlpha"/>
<feMorphology radius="2" operator="dilate" in="SourceAlpha" result="effect1_dropShadow_258_210"/>
<feOffset/>
<feGaussianBlur stdDeviation="23.25"/>
<feComposite in2="hardAlpha" operator="out"/>
<feColorMatrix type="matrix" values="0 0 0 0 0 0 0 0 0 0 0 0 0 0 0 0 0 0 0.3 0"/>
<feBlend mode="normal" in2="BackgroundImageFix" result="effect1_dropShadow_258_210"/>
<feBlend mode="normal" in="SourceGraphic" in2="effect1_dropShadow_258_210" result="shape"/>
</filter>
<clipPath id="clip0_258_210">
<rect width="100" height="100" rx="23.3696" transform="matrix(-1 0 0 1 100 0)" fill="white"/>
</clipPath>
</defs>
</svg>
