<svg xmlns="http://www.w3.org/2000/svg" width="144" height="144" fill="none"><rect width="144" height="144" fill="#C77DFF" rx="28"/><g stroke="#3C096C" stroke-linecap="round" stroke-linejoin="round" stroke-width="7.667" clip-path="url(#a)"><path d="m58.5 78.5 23-23M66.167 44l1.775-2.054a19.168 19.168 0 1 1 27.105 27.11L93 70.834M73.834 90l-1.522 2.047a19.427 19.427 0 0 1-27.32 0 19.059 19.059 0 0 1 0-27.105L47 63.167"/></g><path fill="#000" d="M72.31 78.218c3.531 13.428 6.403 28.491 12.266 41.078 1.33 2.853 4.102 3.985 6.618 3.613 2.41-.356 4.733-2.116 5.38-4.949v-.001l2.987-13.051v-.001a.162.162 0 0 1 .038-.078l12.943-1.22c5.845-.549 8.079-8.257 3.042-11.705L72.311 78.218Zm0 0c-1.264-4.816 1.404-8.886 6.758-6.53h.001m.805.355a220.473 220.473 0 0 1 35.71 19.86l-35.71-19.86Z"/><path stroke="#fff" stroke-width="8" d="M72.31 78.218c3.531 13.428 6.403 28.491 12.266 41.078 1.33 2.853 4.102 3.985 6.618 3.613 2.41-.356 4.733-2.116 5.38-4.949v-.001l2.987-13.051v-.001a.162.162 0 0 1 .038-.078l12.943-1.22c5.845-.549 8.079-8.257 3.042-11.705M72.311 78.218l43.273 13.686M72.311 78.218c-1.266-4.816 1.403-8.886 6.757-6.53h.001m-6.758 6.53 6.758-6.53m36.515 20.216a220.473 220.473 0 0 0-35.71-19.86m35.71 19.86-35.71-19.86m-.805-.356.805.355"/><path fill="#fff" d="M115.811 93h-3v8h3v-8Z"/><path fill="#000" d="M73.128 78.842c-.708-2.696 1.963-5.344 4.732-4.126l.805.355a217.524 217.524 0 0 1 35.225 19.59c2.649 1.814 1.508 5.949-1.629 6.243l-12.983 1.224c-1.24.115-2.336 1.059-2.641 2.39l-2.987 13.055c-.685 2.998-4.917 3.825-6.355.738a229.773 229.773 0 0 1-13.937-38.598l-.23-.87Z"/><defs><clipPath id="a"><path fill="#fff" d="M24 21h92v92H24z"/></clipPath></defs></svg>